<svg id="Capa_1" enable-background="new 0 0 512.097 512.097" height="512" viewBox="0 0 512.097 512.097" width="512" xmlns="http://www.w3.org/2000/svg"><g><g><path d="m375.605 380.976c-11.043-18.968-26.247-33.241-26.247-33.241-6.445-6.902-13.66-13.066-21.498-18.39-5.358-3.639-11.012-6.873-16.914-9.671-16.397-7.771-34.727-12.13-54.078-12.13h-.818c-36.504 0-69.398 15.46-92.49 40.19 0 0-15.205 14.273-26.247 33.241 0 0-32.862 58.107-23.492 123.621h38.258 208.761 38.258c9.369-65.513-23.493-123.62-23.493-123.62z" fill="#ade194"/></g><g><path d="m399.099 504.599h-19.97c9.37-65.52-23.49-123.62-23.49-123.62-11.05-18.97-26.25-33.24-26.25-33.24-6.45-6.91-13.66-13.07-21.5-18.39-5.36-3.64-11.01-6.88-16.91-9.67-13.68-6.49-28.7-10.59-44.54-11.77 3.17-.24 6.38-.36 9.61-.36h.82c19.35 0 37.68 4.35 54.08 12.13 5.9 2.79 11.55 6.03 16.91 9.67 7.84 5.32 15.05 11.48 21.5 18.39 0 0 15.2 14.27 26.25 33.24 0 0 32.86 58.1 23.49 123.62z" fill="#80d261"/></g><g><path d="m137.312 380.976s-32.862 58.107-23.492 123.621h38.258v-70.538z" fill="#f6a96c"/></g><g><path d="m375.605 380.976s32.862 58.107 23.492 123.621h-38.257v-70.538z" fill="#f6a96c"/></g><g><path d="m399.099 504.599h-19.97c5.36-37.46-3.09-72.5-11.31-95.64l7.79-27.98s32.86 58.1 23.49 123.62z" fill="#ea9b58"/></g><g><path d="m256.049 362.367c-11.725 0-21.229-9.505-21.229-21.229v-38.415h42.458v38.415c0 11.724-9.505 21.229-21.229 21.229z" fill="#d88a55"/></g><g><path d="m420.758 132.131c-34.186-129.335-164.709-124.601-164.709-124.601s-130.524-4.734-164.709 124.601c0 0-33.287 136.509 103.668 176.67h61.041 61.041c136.955-40.161 103.668-176.67 103.668-176.67z" fill="#766e6e"/></g><g><path d="m317.089 308.799h-21.08c136.96-40.55 103.67-178.39 103.67-178.39-22.96-87.73-89.4-114.37-130.54-122.4 33.93 2.73 124.06 19.88 151.62 124.12 0 0 33.29 136.51-103.67 176.67z" fill="#5b5555"/></g><g><path d="m256.049 326.825c-63.602 0-115.162-51.56-115.162-115.162v-88.772h230.323v88.772c0 63.603-51.559 115.162-115.161 115.162z" fill="#f6a96c"/></g><g><path d="m371.209 122.889v88.77c0 63.61-51.56 115.17-115.16 115.17-3.27 0-6.52-.14-9.72-.41 59.05-4.93 105.44-54.43 105.44-114.76v-88.77z" fill="#ea9b58"/></g><g><g><circle cx="180.865" cy="244.952" fill="#d77f4a" r="15.107"/></g><g><circle cx="331.233" cy="244.952" fill="#d77f4a" r="15.107"/></g></g><g><path d="m385.874 183.39v-84.662h-253.737v84.662h5.489s76.311 6.502 118.422-55.174c22.966 33.635 55.774 46.807 80.784 51.962 19.473 4.013 34.184 3.217 36.072 3.109z" fill="#766e6e"/></g><g><path d="m208.524 429.931c2.093-2.769 3.35-6.204 3.35-9.935 0-9.114-7.415-16.529-16.529-16.529h-14.554c-2.761 0-5 2.239-5 5v50.103c0 1.33.53 2.605 1.472 3.543.938.933 2.206 1.457 3.528 1.457h.022s13.384-.06 17.073-.06c10.193 0 18.486-8.292 18.486-18.486.001-6.232-3.109-11.743-7.848-15.093zm-22.733-16.464h9.554c3.6 0 6.529 2.929 6.529 6.529s-2.929 6.529-6.529 6.529c-1.077 0-9.554.014-9.554.014zm12.096 40.044c-2.208 0-7.882.021-12.095.039v-16.995c1.352-.005 12.095-.016 12.095-.016 4.679 0 8.486 3.807 8.486 8.486s-3.807 8.486-8.486 8.486z"/><path d="m297.045 404.281c-2.313 1.51-2.963 4.608-1.453 6.92l15.187 23.258-.059 24.099c-.007 2.761 2.227 5.005 4.987 5.012h.013c2.756 0 4.993-2.23 5-4.988l.059-24.115 15.067-23.145c1.507-2.314.852-5.412-1.463-6.918-2.313-1.506-5.411-.851-6.918 1.462l-11.688 17.956-11.812-18.089c-1.51-2.312-4.61-2.963-6.92-1.452z"/><path d="m257.93 403.467c-16.57 0-30.051 13.481-30.051 30.052 0 16.57 13.481 30.051 30.051 30.051s30.052-13.481 30.052-30.051c0-16.571-13.482-30.052-30.052-30.052zm0 50.103c-11.056 0-20.051-8.995-20.051-20.051 0-11.057 8.995-20.052 20.051-20.052 11.057 0 20.052 8.995 20.052 20.052 0 11.056-8.995 20.051-20.052 20.051z"/><path d="m205.843 199.487c-4.142 0-7.5 3.358-7.5 7.5v17.872c0 4.142 3.358 7.5 7.5 7.5s7.5-3.358 7.5-7.5v-17.872c0-4.142-3.358-7.5-7.5-7.5z"/><path d="m306.255 199.487c-4.143 0-7.5 3.358-7.5 7.5v17.872c0 4.142 3.357 7.5 7.5 7.5s7.5-3.358 7.5-7.5v-17.872c0-4.142-3.358-7.5-7.5-7.5z"/><path d="m277.873 265.575c-3.924-1.314-8.178.804-9.492 4.732-1.775 5.306-6.731 8.87-12.332 8.87s-10.557-3.565-12.332-8.871c-1.313-3.928-5.563-6.049-9.492-4.733-3.928 1.314-6.047 5.563-4.733 9.492 3.824 11.432 14.497 19.112 26.557 19.112 12.059 0 22.731-7.68 26.556-19.11 1.315-3.928-.805-8.178-4.732-9.492z"/><path d="m427.599 207.05c9.078-40.397.802-75.232.444-76.696-.011-.046-.022-.093-.035-.14-5.815-22.004-14.761-41.709-26.588-58.568-2.379-3.39-7.056-4.212-10.447-1.832-3.391 2.379-4.211 7.056-1.832 10.447 10.791 15.381 18.98 33.448 24.343 53.7.355 1.515 7.638 33.501-.52 69.8-8.023 35.699-27.665 62.83-58.536 81.07 15.244-20.44 24.282-45.766 24.282-73.168 0 0 .007-28.549-.019-28.914-.291-4.132-3.882-7.255-8.008-6.955-.697.046-70.159 4.258-108.441-51.808-1.397-2.047-3.716-3.271-6.194-3.271s-4.796 1.224-6.194 3.271c-15.925 23.324-38.884 39.129-68.239 46.977-22.258 5.95-40.037 4.842-40.214 4.83-.666-.044-1.421.01-2.079.149-3.393.719-5.936 3.887-5.936 7.334v28.387c0 27.411 9.046 52.744 24.299 73.189-30.733-18.153-50.335-45.123-58.436-80.58-8.31-36.367-.979-68.834-.635-70.314 13.502-50.986 43.852-86.473 90.207-105.47 35.05-14.364 66.646-13.471 66.955-13.463.182.007.362.007.544 0 .628-.025 63.168-1.782 110.744 40.456 3.099 2.75 7.838 2.467 10.588-.629 2.75-3.098 2.469-7.838-.629-10.588-50.906-45.197-115.602-44.393-120.978-44.238-3.544-.102-35.773-.498-72.352 14.354-35.255 14.313-81.153 46.029-99.604 115.834-.012.046-.024.093-.036.14-.356 1.463-8.633 36.299.445 76.696 8.376 37.27 33.595 86.085 105.978 108.216.556.353 1.106.714 1.668 1.059-12.529 6.788-24.017 15.567-33.907 26.122-1.916 1.826-16.488 16.002-27.453 34.838-1.393 2.463-34.009 61.105-24.388 128.375.528 3.694 3.692 6.438 7.424 6.438h285.278c3.731 0 6.896-2.744 7.425-6.438 9.617-67.24-22.966-125.858-24.386-128.371-.001-.001-.002-.003-.002-.004-.016-.027-.031-.054-.047-.082-10.919-18.756-25.486-32.927-27.405-34.756-6.757-7.211-14.362-13.706-22.607-19.306-3.756-2.551-7.68-4.907-11.705-7.075.419-.259.829-.533 1.245-.797 72.387-22.13 97.607-70.947 105.983-108.219zm-283.022 290.047s-24.109 0-24.116 0c-.864-.002-.786-20.035-.729-21.889.226-7.304.904-14.592 1.973-21.819 2.564-17.323 7.323-34.341 13.811-50.573.017-.042.033-.084.05-.126l9.01 32.392v62.015zm223.762-62.015 9.01-32.393c8.185 20.436 18.969 55.942 15.106 94.408h-24.116zm-44.693-99.533c17.081 11.599 32.923 28.825 43.869 46.527l-13.901 49.973c-.183.654-.274 1.331-.274 2.01v63.038h-193.763v-63.038c0-.679-.092-1.355-.274-2.01l-13.901-49.973c10.151-16.416 23.157-28.748 23.29-28.874.12-.113.236-.229.348-.35 11.267-12.065 24.877-21.536 39.792-27.984 5.94 2.487 12.119 4.511 18.486 6.046v10.223c0 15.841 12.888 28.729 28.73 28.729s28.729-12.888 28.729-28.729v-10.217c6.544-1.576 12.888-3.671 18.979-6.252 1.332.573 2.66 1.16 3.977 1.784 5.528 2.62 10.882 5.681 15.913 9.097zm-81.327 5.589v-7.586c4.509.505 9.088.774 13.73.774 4.641 0 9.22-.268 13.729-.773v7.585c0 7.57-6.159 13.729-13.729 13.729-7.571 0-13.73-6.159-13.73-13.729zm13.729-21.812c-59.365 0-107.662-48.297-107.662-107.662v-20.808c7.99-.189 21.232-1.217 36.561-5.257 29.122-7.675 53.501-23.084 71.101-44.83 17.601 21.746 41.979 37.155 71.102 44.83 15.327 4.039 28.571 5.068 36.561 5.257v20.807c0 59.366-48.297 107.663-107.663 107.663z"/></g></g></svg>